<mxfile host="app.diagrams.net" agent="Mozilla/5.0 (Windows NT 10.0; Win64; x64) AppleWebKit/537.36 (KHTML, like Gecko) Chrome/134.0.0.0 Safari/537.36 Edg/134.0.0.0" version="26.1.1">
  <diagram name="Page-1" id="42789a77-a242-8287-6e28-9cd8cfd52e62">
    <mxGraphModel dx="2553" dy="1645" grid="1" gridSize="10" guides="1" tooltips="1" connect="1" arrows="1" fold="1" page="1" pageScale="1" pageWidth="1100" pageHeight="850" background="none" math="0" shadow="0">
      <root>
        <mxCell id="0" />
        <mxCell id="1" parent="0" />
        <mxCell id="DCHyI8LUzfqa44hQD6LI-24" value="&lt;font style=&quot;font-size: 18px;&quot;&gt;Ingreso a la aplicación&lt;/font&gt;" style="rounded=1;whiteSpace=wrap;html=1;" vertex="1" parent="1">
          <mxGeometry x="-20" y="395" width="120" height="60" as="geometry" />
        </mxCell>
        <mxCell id="DCHyI8LUzfqa44hQD6LI-26" value="&lt;font style=&quot;font-size: 18px;&quot;&gt;Consumidores&lt;/font&gt;" style="rounded=1;whiteSpace=wrap;html=1;" vertex="1" parent="1">
          <mxGeometry x="190" y="270" width="140" height="60" as="geometry" />
        </mxCell>
        <mxCell id="DCHyI8LUzfqa44hQD6LI-30" value="" style="endArrow=classic;html=1;rounded=0;" edge="1" parent="1" source="DCHyI8LUzfqa44hQD6LI-24" target="DCHyI8LUzfqa44hQD6LI-26">
          <mxGeometry width="50" height="50" relative="1" as="geometry">
            <mxPoint x="90" y="420" as="sourcePoint" />
            <mxPoint x="140" y="370" as="targetPoint" />
          </mxGeometry>
        </mxCell>
        <mxCell id="DCHyI8LUzfqa44hQD6LI-35" value="Usuario" style="edgeLabel;html=1;align=center;verticalAlign=middle;resizable=0;points=[];" vertex="1" connectable="0" parent="DCHyI8LUzfqa44hQD6LI-30">
          <mxGeometry x="-0.2871" relative="1" as="geometry">
            <mxPoint x="-1" as="offset" />
          </mxGeometry>
        </mxCell>
        <mxCell id="DCHyI8LUzfqa44hQD6LI-33" value="&lt;font style=&quot;font-size: 18px;&quot;&gt;Personal de la empresa&lt;/font&gt;" style="rounded=1;whiteSpace=wrap;html=1;" vertex="1" parent="1">
          <mxGeometry x="170" y="520" width="120" height="60" as="geometry" />
        </mxCell>
        <mxCell id="DCHyI8LUzfqa44hQD6LI-34" value="" style="endArrow=classic;html=1;rounded=0;" edge="1" parent="1" source="DCHyI8LUzfqa44hQD6LI-24" target="DCHyI8LUzfqa44hQD6LI-33">
          <mxGeometry width="50" height="50" relative="1" as="geometry">
            <mxPoint x="110" y="480" as="sourcePoint" />
            <mxPoint x="160" y="430" as="targetPoint" />
          </mxGeometry>
        </mxCell>
        <mxCell id="DCHyI8LUzfqa44hQD6LI-36" value="Usuario" style="edgeLabel;html=1;align=center;verticalAlign=middle;resizable=0;points=[];" vertex="1" connectable="0" parent="DCHyI8LUzfqa44hQD6LI-34">
          <mxGeometry x="-0.131" y="-1" relative="1" as="geometry">
            <mxPoint as="offset" />
          </mxGeometry>
        </mxCell>
        <mxCell id="DCHyI8LUzfqa44hQD6LI-38" value="&lt;font style=&quot;font-size: 18px;&quot;&gt;Inicio de sesión&lt;/font&gt;" style="rounded=1;whiteSpace=wrap;html=1;" vertex="1" parent="1">
          <mxGeometry x="560" y="-30" width="120" height="60" as="geometry" />
        </mxCell>
        <mxCell id="DCHyI8LUzfqa44hQD6LI-39" value="" style="endArrow=classic;html=1;rounded=0;" edge="1" parent="1" source="DCHyI8LUzfqa44hQD6LI-26" target="DCHyI8LUzfqa44hQD6LI-38">
          <mxGeometry width="50" height="50" relative="1" as="geometry">
            <mxPoint x="410" y="300" as="sourcePoint" />
            <mxPoint x="460" y="250" as="targetPoint" />
          </mxGeometry>
        </mxCell>
        <mxCell id="DCHyI8LUzfqa44hQD6LI-41" value="&lt;font style=&quot;font-size: 18px;&quot;&gt;Mi consumo&lt;/font&gt;&lt;span style=&quot;color: rgba(0, 0, 0, 0); font-family: monospace; font-size: 0px; text-align: start; text-wrap-mode: nowrap;&quot;&gt;%3CmxGraphModel%3E%3Croot%3E%3CmxCell%20id%3D%220%22%2F%3E%3CmxCell%20id%3D%221%22%20parent%3D%220%22%2F%3E%3CmxCell%20id%3D%222%22%20value%3D%22%26lt%3Bfont%20style%3D%26quot%3Bfont-size%3A%2018px%3B%26quot%3B%26gt%3Ba%26lt%3B%2Ffont%26gt%3B%22%20style%3D%22rounded%3D1%3BwhiteSpace%3Dwrap%3Bhtml%3D1%3B%22%20vertex%3D%221%22%20parent%3D%221%22%3E%3CmxGeometry%20x%3D%22180%22%20y%3D%22420%22%20width%3D%22120%22%20height%3D%2260%22%20as%3D%22geometry%22%2F%3E%3C%2FmxCell%3E%3C%2Froot%3E%3C%2FmxGraphModel%3E&lt;/span&gt;" style="rounded=1;whiteSpace=wrap;html=1;" vertex="1" parent="1">
          <mxGeometry x="560" y="60" width="120" height="60" as="geometry" />
        </mxCell>
        <mxCell id="DCHyI8LUzfqa44hQD6LI-42" value="&lt;font style=&quot;font-size: 18px;&quot;&gt;Pagos&lt;/font&gt;" style="rounded=1;whiteSpace=wrap;html=1;" vertex="1" parent="1">
          <mxGeometry x="560" y="140" width="120" height="60" as="geometry" />
        </mxCell>
        <mxCell id="DCHyI8LUzfqa44hQD6LI-43" value="&lt;font style=&quot;font-size: 18px;&quot;&gt;Consumo responsable&lt;/font&gt;" style="rounded=1;whiteSpace=wrap;html=1;" vertex="1" parent="1">
          <mxGeometry x="560" y="230" width="120" height="60" as="geometry" />
        </mxCell>
        <mxCell id="DCHyI8LUzfqa44hQD6LI-44" value="&lt;font style=&quot;font-size: 18px;&quot;&gt;Cuenta&lt;/font&gt;" style="rounded=1;whiteSpace=wrap;html=1;" vertex="1" parent="1">
          <mxGeometry x="560" y="330" width="120" height="60" as="geometry" />
        </mxCell>
        <mxCell id="DCHyI8LUzfqa44hQD6LI-45" value="&lt;font style=&quot;font-size: 18px;&quot;&gt;Notificaciones&lt;/font&gt;" style="rounded=1;whiteSpace=wrap;html=1;" vertex="1" parent="1">
          <mxGeometry x="560" y="440" width="120" height="60" as="geometry" />
        </mxCell>
        <mxCell id="DCHyI8LUzfqa44hQD6LI-46" value="&lt;font style=&quot;font-size: 18px;&quot;&gt;Atención al cliente&lt;/font&gt;" style="rounded=1;whiteSpace=wrap;html=1;" vertex="1" parent="1">
          <mxGeometry x="560" y="530" width="120" height="60" as="geometry" />
        </mxCell>
        <mxCell id="DCHyI8LUzfqa44hQD6LI-47" value="" style="endArrow=classic;html=1;rounded=0;" edge="1" parent="1" source="DCHyI8LUzfqa44hQD6LI-26" target="DCHyI8LUzfqa44hQD6LI-41">
          <mxGeometry width="50" height="50" relative="1" as="geometry">
            <mxPoint x="360" y="330" as="sourcePoint" />
            <mxPoint x="410" y="280" as="targetPoint" />
          </mxGeometry>
        </mxCell>
        <mxCell id="DCHyI8LUzfqa44hQD6LI-48" value="" style="endArrow=classic;html=1;rounded=0;" edge="1" parent="1" source="DCHyI8LUzfqa44hQD6LI-26" target="DCHyI8LUzfqa44hQD6LI-42">
          <mxGeometry width="50" height="50" relative="1" as="geometry">
            <mxPoint x="360" y="410" as="sourcePoint" />
            <mxPoint x="410" y="360" as="targetPoint" />
          </mxGeometry>
        </mxCell>
        <mxCell id="DCHyI8LUzfqa44hQD6LI-49" value="" style="endArrow=classic;html=1;rounded=0;" edge="1" parent="1" source="DCHyI8LUzfqa44hQD6LI-26" target="DCHyI8LUzfqa44hQD6LI-43">
          <mxGeometry width="50" height="50" relative="1" as="geometry">
            <mxPoint x="360" y="460" as="sourcePoint" />
            <mxPoint x="410" y="410" as="targetPoint" />
          </mxGeometry>
        </mxCell>
        <mxCell id="DCHyI8LUzfqa44hQD6LI-51" value="" style="endArrow=classic;html=1;rounded=0;" edge="1" parent="1" source="DCHyI8LUzfqa44hQD6LI-26" target="DCHyI8LUzfqa44hQD6LI-44">
          <mxGeometry width="50" height="50" relative="1" as="geometry">
            <mxPoint x="330" y="510" as="sourcePoint" />
            <mxPoint x="380" y="460" as="targetPoint" />
          </mxGeometry>
        </mxCell>
        <mxCell id="DCHyI8LUzfqa44hQD6LI-52" value="" style="endArrow=classic;html=1;rounded=0;" edge="1" parent="1" source="DCHyI8LUzfqa44hQD6LI-26" target="DCHyI8LUzfqa44hQD6LI-45">
          <mxGeometry width="50" height="50" relative="1" as="geometry">
            <mxPoint x="280" y="300" as="sourcePoint" />
            <mxPoint x="380" y="520" as="targetPoint" />
          </mxGeometry>
        </mxCell>
        <mxCell id="DCHyI8LUzfqa44hQD6LI-53" value="" style="endArrow=classic;html=1;rounded=0;" edge="1" parent="1" source="DCHyI8LUzfqa44hQD6LI-26" target="DCHyI8LUzfqa44hQD6LI-46">
          <mxGeometry width="50" height="50" relative="1" as="geometry">
            <mxPoint x="310" y="590" as="sourcePoint" />
            <mxPoint x="360" y="540" as="targetPoint" />
          </mxGeometry>
        </mxCell>
        <mxCell id="DCHyI8LUzfqa44hQD6LI-54" value="&lt;font style=&quot;font-size: 18px;&quot;&gt;Registro&lt;/font&gt;" style="rounded=1;whiteSpace=wrap;html=1;" vertex="1" parent="1">
          <mxGeometry x="740" y="-30" width="120" height="60" as="geometry" />
        </mxCell>
        <mxCell id="DCHyI8LUzfqa44hQD6LI-55" value="" style="endArrow=classic;html=1;rounded=0;" edge="1" parent="1" source="DCHyI8LUzfqa44hQD6LI-38" target="DCHyI8LUzfqa44hQD6LI-54">
          <mxGeometry width="50" height="50" relative="1" as="geometry">
            <mxPoint x="700" y="-80" as="sourcePoint" />
            <mxPoint x="750" y="-130" as="targetPoint" />
          </mxGeometry>
        </mxCell>
        <mxCell id="DCHyI8LUzfqa44hQD6LI-56" value="&lt;font style=&quot;font-size: 18px;&quot;&gt;a&lt;/font&gt;" style="rounded=1;whiteSpace=wrap;html=1;" vertex="1" parent="1">
          <mxGeometry x="910" y="-30" width="120" height="60" as="geometry" />
        </mxCell>
      </root>
    </mxGraphModel>
  </diagram>
</mxfile>
